# xmcd
#
# Track frame offsets:
#	150
#	12390
#	20103
#	30166
#	52956
#	63545
#	69441
#	80559
#	88335
#	93840
#	104331
#	114722
#	126865
#	139679
#	153263
#	165917
#	175238
#	185976
#
# Disc length: 2949 seconds
#
# Revision: 0
# Processed by: cddbd v1.5.2PL0 Copyright (c) Steve Scherf et al.
# Submitted via: audiograbber 1.83.01
#
DISCID=ee0b8312
DTITLE=Various Artist - Look A-Yonder Comin - Bluegrass and Old-Time String Ba
DTITLE=nd Music from the Florida Folklife Collection
DYEAR=2003
DGENRE=Bluegrass
TTITLE0=Red and Murphy Henry with Tuck Tucker - Baby I Am Georgia Bound
TTITLE1=Big Bend Ramblers - Sally Ann
TTITLE2=Mike and Polly Johnson - Going Down That Road Feeling Bad
TTITLE3=Town Hall - Darlin' Corey
TTITLE4=Bill Monroe - Big Mon
TTITLE5=Frank Evans and Leo Taylor - Bugle Call Rag
TTITLE6=Mark Johnson and Emery Lester - Forked Deer
TTITLE7=Willie Jones and Roger Endy - Ragtime Annie
TTITLE8=Goose Culbreath - Granny Will Your Dog Bite
TTITLE9=Pine Valley Boys of Tifton, Georgia - Hot Corn, Cold Corn
TTITLE10=LLoyd Baldwin, Bill Martin, and Dave Borland - Forty Weight of Gingerb
TTITLE10=read
TTITLE11=Peyton - Winnsboro Cotton Mill Blues
TTITLE12=Doc Watson and Jack Lawrence - Shady Grove
TTITLE13=Home Grown String Band - Roll 'em Boys
TTITLE14=Cush Holston - We're Gonna Have A Good Time Tonight
TTITLE15=Chubby Anthony and Claude Bedenbaugh - Orange Blossom Special
TTITLE16=Jim and Jesse McReynolds with the Virginia Boys - Gosh I Miss You All 
TTITLE16=The Time
TTITLE17=Norman and Nancy Blake - Fifty Miles of Elbow Room
EXTD=
EXTT0=
EXTT1=
EXTT2=
EXTT3=
EXTT4=
EXTT5=
EXTT6=
EXTT7=
EXTT8=
EXTT9=
EXTT10=
EXTT11=
EXTT12=
EXTT13=
EXTT14=
EXTT15=
EXTT16=
EXTT17=
PLAYORDER=
